<?xml version="1.0" encoding="utf-8"?>
<!-- Generator: Adobe Illustrator 25.0.0, SVG Export Plug-In . SVG Version: 6.00 Build 0)  -->
<svg version="1.1" id="Layer_1" xmlns="http://www.w3.org/2000/svg" xmlns:xlink="http://www.w3.org/1999/xlink" x="0px" y="0px"
	 viewBox="0 0 512 512" style="enable-background:new 0 0 512 512;" xml:space="preserve">
<style type="text/css">
	.st0{display:none;}
	.st1{display:inline;}
	.st2{fill:#FFBC00;}
</style>
<g class="st0">
	<g class="st1">
		<rect class="st2" width="512" height="512"/>
	</g>
</g>
<g>
	<g>
		<polygon points="512,295.5 457.7,265 457.7,287.6 457.7,390.1 457.7,398.8 512,398.8 		"/>
		<path d="M340.8,287.1h-52.3h-23.8h-17.4h-23.8h-52.3V182.4L72.4,231v167.8h76h22.8h21.4v-66.9h-21.4v-13.5h76.2v-18.8h17.4v18.8
			h76.2v13.5h-21.4v66.9h21.4h22.8h76V231l-98.7-48.6V287.1z M102.4,375.2H84.7v-17.7h17.7V375.2z M102.4,316.4H84.7v-17.7h17.7
			V316.4z M102.4,287H84.7v-17.7h17.7V287z M132,345.8h-17.7v-17.7H132V345.8z M132,287h-17.7v-17.7H132V287z M132,257.6h-17.7
			v-17.7H132V257.6z M161.7,375.2H144v-17.7h17.7V375.2z M161.7,345.8H144v-17.7h17.7V345.8z M161.7,316.4H144v-17.7h17.7V316.4z
			 M161.7,257.6H144v-17.7h17.7V257.6z M409.6,239.9h17.7v17.7h-17.7V239.9z M409.6,298.7h17.7v17.7h-17.7V298.7z M409.6,328.2h17.7
			v17.7h-17.7V328.2z M380,269.3h17.7V287H380V269.3z M380,298.7h17.7v17.7H380V298.7z M380,357.6h17.7v17.7H380V357.6z
			 M350.3,239.9H368v17.7h-17.7V239.9z M350.3,269.3H368V287h-17.7V269.3z M350.3,328.2H368v17.7h-17.7V328.2z M350.3,357.6H368
			v17.7h-17.7V357.6z"/>
		<polygon points="0,398.8 54.3,398.8 54.3,390.1 54.3,287.6 54.3,265 0,295.5 		"/>
		<polygon points="326.4,160 280.9,137.7 280.9,113.2 231.1,113.2 231.1,137.4 185.6,160 185.6,181 326.4,181 		"/>
		<path d="M326.4,198.3H185.6v76.9h140.7V198.3z M237.8,225.3l-1.8,3.4c-0.5,1-1.7,1.4-2.7,0.9l-13.6-7.1c-1-0.5-1.4-1.7-0.9-2.7
			l1.8-3.4c0.5-1,1.7-1.4,2.7-0.9l13.6,7.1C237.9,223.1,238.3,224.3,237.8,225.3z M291.4,222.4l-13.6,7.1c-1,0.5-2.2,0.1-2.7-0.9
			l-1.8-3.4c-0.5-1-0.1-2.2,0.9-2.7l13.6-7.1c1-0.5,2.2-0.1,2.7,0.9l1.8,3.4C292.8,220.7,292.4,221.9,291.4,222.4z"/>
		<rect x="207.9" y="333.1" width="96.3" height="37.1"/>
	</g>
</g>
</svg>
