<?xml version="1.0" encoding="utf-8"?>
<!-- Generator: Adobe Illustrator 24.0.2, SVG Export Plug-In . SVG Version: 6.00 Build 0)  -->
<svg version="1.1" id="Layer_1" xmlns="http://www.w3.org/2000/svg" xmlns:xlink="http://www.w3.org/1999/xlink" x="0px" y="0px"
	 viewBox="0 0 2000 2000" style="enable-background:new 0 0 2000 2000;" xml:space="preserve">
<style type="text/css">
	.st0{fill:#0F1F2F;}
	.st1{display:none;fill:#F1F1F1;}
	.st2{fill:#FFBC00;}
	.st3{display:none;}
	.st4{display:inline;}
	.st5{fill:#FFFFFF;}
	.st6{fill:#E4B77C;}
	.st7{fill:#03092D;}
</style>
<g class="st3">
	<rect class="st4" width="2000" height="2000"/>
</g>
<g>
	<g>
		<polygon points="1419.14,1115.73 1330.2,1065.84 1330.2,1102.9 1330.2,1270.65 1330.2,1284.93 1419.14,1284.93 		"/>
		<path d="M1138.92,1101.99h-85.65h-39.05h-28.44h-39.05h-85.65V930.62l-161.64,79.54v274.77h124.37h37.27h35.04v-109.54h-35.04
			v-22.05h124.7v-30.85h28.44v30.85h124.7v22.05h-35.04v109.54h35.04h37.27h124.37v-274.77l-161.64-79.54V1101.99z M748.53,1246.34
			h-28.92v-28.92h28.92V1246.34z M748.53,1150.04h-28.92v-28.92h28.92V1150.04z M748.53,1101.89h-28.92v-28.92h28.92V1101.89z
			 M797.06,1198.19h-28.92v-28.92h28.92V1198.19z M797.06,1101.89h-28.92v-28.92h28.92V1101.89z M797.06,1053.73h-28.92v-28.92
			h28.92V1053.73z M845.58,1246.34h-28.92v-28.92h28.92V1246.34z M845.58,1198.19h-28.92v-28.92h28.92V1198.19z M845.58,1150.04
			h-28.92v-28.92h28.92V1150.04z M845.58,1053.73h-28.92v-28.92h28.92V1053.73z M1251.47,1024.81h28.92v28.92h-28.92V1024.81z
			 M1251.47,1121.11h28.92v28.92h-28.92V1121.11z M1251.47,1169.27h28.92v28.92h-28.92V1169.27z M1202.94,1072.96h28.92v28.92
			h-28.92V1072.96z M1202.94,1121.11h28.92v28.92h-28.92V1121.11z M1202.94,1217.42h28.92v28.92h-28.92V1217.42z M1154.42,1024.81
			h28.92v28.92h-28.92V1024.81z M1154.42,1072.96h28.92v28.92h-28.92V1072.96z M1154.42,1169.27h28.92v28.92h-28.92V1169.27z
			 M1154.42,1217.42h28.92v28.92h-28.92V1217.42z"/>
		<polygon points="580.86,1284.93 669.8,1284.93 669.8,1270.65 669.8,1102.9 669.8,1065.84 580.86,1115.73 		"/>
		<polygon points="1115.21,893.99 1040.73,857.52 1040.73,817.34 959.27,817.34 959.27,856.91 884.79,893.99 884.79,928.4 
			1115.21,928.4 		"/>
		<path d="M1115.21,956.6H884.79v125.87h230.42V956.6z M970.15,1000.92l-2.87,5.49c-0.85,1.62-2.85,2.25-4.48,1.4l-22.22-11.62
			c-1.62-0.85-2.25-2.85-1.4-4.48l2.87-5.49c0.85-1.62,2.85-2.25,4.48-1.4l22.22,11.62C970.37,997.3,970.99,999.3,970.15,1000.92z
			 M1057.98,996.2l-22.22,11.62c-1.62,0.85-3.63,0.22-4.47-1.4l-2.87-5.49c-0.85-1.62-0.22-3.63,1.4-4.48l22.22-11.62
			c1.62-0.85,3.63-0.22,4.48,1.4l2.87,5.49C1060.23,993.35,1059.6,995.35,1057.98,996.2z"/>
		<rect x="921.19" y="1177.43" width="157.63" height="60.74"/>
	</g>
	<g>
		<path d="M487.19,1250.85c-1.94,3.81-4.59,6.77-7.95,8.87c-3.36,2.1-7.28,3.03-11.75,2.8l1.45-17.65c2.54-0.05,4.54-0.76,5.98-2.15
			c1.45-1.38,2.27-3.26,2.46-5.65c0.2-2.46-0.2-4.44-1.22-5.96c-1.01-1.52-2.52-2.36-4.53-2.52c-1.68-0.14-3.12,0.31-4.31,1.36
			c-1.19,1.04-2.21,2.36-3.06,3.95c-0.85,1.59-1.85,3.87-3,6.83c-1.72,4.28-3.37,7.76-4.96,10.43c-1.59,2.67-3.79,4.9-6.6,6.68
			c-2.81,1.79-6.35,2.5-10.62,2.16c-6.33-0.52-11.11-3.22-14.32-8.11c-3.21-4.88-4.51-11.01-3.91-18.38
			c0.62-7.5,2.91-13.39,6.87-17.69c3.96-4.29,9.16-6.34,15.59-6.14l-1.47,17.94c-2.21-0.05-4,0.62-5.39,2
			c-1.38,1.38-2.17,3.24-2.36,5.57c-0.16,2,0.24,3.67,1.2,4.98c0.97,1.32,2.45,2.06,4.45,2.22c2.2,0.18,4-0.71,5.39-2.68
			c1.4-1.97,2.99-5.09,4.77-9.37c1.85-4.27,3.56-7.73,5.15-10.36c1.58-2.63,3.75-4.85,6.5-6.64c2.75-1.79,6.16-2.52,10.23-2.19
			c3.88,0.32,7.32,1.59,10.33,3.82c3.01,2.23,5.29,5.3,6.86,9.2c1.57,3.9,2.14,8.41,1.72,13.51
			C490.31,1242.65,489.14,1247.04,487.19,1250.85z"/>
		<path d="M433.99,1152.9l39.67,9.79c3.97,0.98,7.26,0.76,9.88-0.67c2.62-1.42,4.4-4.02,5.33-7.8c0.93-3.78,0.58-6.94-1.07-9.48
			c-1.64-2.54-4.45-4.3-8.42-5.28l-39.67-9.79l3.99-16.15l39.58,9.77c5.92,1.46,10.61,3.96,14.08,7.49
			c3.47,3.53,5.72,7.68,6.75,12.44c1.03,4.76,0.9,9.76-0.39,14.98c-1.29,5.23-3.47,9.65-6.53,13.27c-3.06,3.62-6.95,6.12-11.67,7.49
			c-4.71,1.38-10.03,1.33-15.95-0.13l-39.57-9.77L433.99,1152.9z"/>
		<path d="M489.04,1003.3l62.04,28.55l-6.95,15.11l-37.21-17.12l30.82,31l-5.61,12.19l-43.72-3.2l37.3,17.16l-6.95,15.11
			l-62.04-28.55l8.22-17.85l50.96,2.36l-35.02-37L489.04,1003.3z"/>
		<path d="M571.94,992.81c-5.55,2.59-11.42,3.58-17.6,2.99c-6.18-0.59-11.97-2.84-17.38-6.76c-5.41-3.92-9.35-8.71-11.81-14.38
			c-2.46-5.67-3.33-11.54-2.61-17.63c0.72-6.08,2.97-11.73,6.73-16.93c3.77-5.2,8.43-9.09,13.98-11.68
			c5.55-2.58,11.39-3.56,17.5-2.94c6.11,0.62,11.88,2.9,17.29,6.81c5.41,3.92,9.37,8.71,11.88,14.37
			c2.51,5.66,3.41,11.52,2.71,17.58c-0.7,6.06-2.94,11.69-6.7,16.89C582.15,986.33,577.49,990.22,571.94,992.81z M576.89,958.44
			c-1.02-4.78-3.95-8.92-8.78-12.42c-4.89-3.54-9.75-5.04-14.58-4.49c-4.84,0.54-8.85,3.02-12.05,7.43
			c-3.23,4.47-4.37,9.07-3.4,13.82c0.97,4.75,3.92,8.91,8.86,12.48c4.89,3.54,9.75,5.04,14.58,4.49c4.84-0.54,8.87-3.04,12.1-7.51
			C576.82,967.82,577.91,963.22,576.89,958.44z"/>
		<path d="M654.04,814.12l43.46,52.68l-12.83,10.59l-17.9-21.69l-19.96,16.47l17.89,21.69l-12.83,10.59l-43.47-52.68l12.83-10.59
			l17.03,20.64l19.96-16.47l-17.03-20.64L654.04,814.12z"/>
		<path d="M752.81,818.53l-22.16,12.59l2.41,12.51l-15.14,8.6l-12.26-71.59l16.75-9.52l55.23,47.17l-15.31,8.7L752.81,818.53z
			 M742.74,809.48l-19.71-17.56l5.08,25.87L742.74,809.48z"/>
		<path d="M793,738.47l13.81,38.46c1.38,3.85,3.39,6.47,6.03,7.86c2.64,1.4,5.79,1.44,9.45,0.12c3.66-1.32,6.1-3.36,7.31-6.14
			c1.21-2.78,1.12-6.09-0.26-9.93l-13.81-38.46l15.66-5.62l13.78,38.37c2.06,5.74,2.58,11.03,1.56,15.87
			c-1.02,4.85-3.22,9.01-6.62,12.51s-7.63,6.15-12.7,7.97c-5.07,1.82-9.96,2.46-14.67,1.91c-4.71-0.55-8.94-2.4-12.7-5.57
			c-3.76-3.16-6.66-7.62-8.72-13.35l-13.78-38.37L793,738.47z"/>
		<path d="M893.59,777.94c-4.19-0.87-7.73-2.65-10.64-5.35c-2.91-2.69-4.83-6.23-5.78-10.6l17.41-3.23
			c0.72,2.44,1.93,4.18,3.64,5.21c1.71,1.04,3.74,1.33,6.1,0.9c2.42-0.45,4.23-1.36,5.43-2.74c1.2-1.38,1.61-3.05,1.24-5.03
			c-0.31-1.66-1.12-2.92-2.44-3.8c-1.32-0.88-2.85-1.51-4.61-1.91c-1.76-0.4-4.22-0.77-7.38-1.1c-4.59-0.53-8.37-1.22-11.36-2.04
			c-2.99-0.83-5.72-2.37-8.18-4.62c-2.46-2.25-4.08-5.48-4.87-9.68c-1.16-6.25,0.19-11.56,4.07-15.94
			c3.87-4.38,9.44-7.24,16.71-8.59c7.4-1.37,13.69-0.71,18.87,1.99s8.52,7.17,10.01,13.43l-17.69,3.29
			c-0.53-2.14-1.64-3.7-3.34-4.67c-1.7-0.97-3.69-1.24-5.99-0.82c-1.98,0.37-3.48,1.19-4.49,2.47c-1.02,1.28-1.34,2.91-0.98,4.88
			c0.4,2.17,1.74,3.67,4,4.5c2.27,0.83,5.7,1.55,10.29,2.15c4.61,0.66,8.39,1.41,11.35,2.25c2.96,0.84,5.66,2.35,8.11,4.53
			c2.45,2.18,4.05,5.28,4.79,9.3c0.71,3.83,0.38,7.48-0.98,10.97c-1.37,3.49-3.73,6.5-7.08,9.03c-3.35,2.54-7.55,4.27-12.59,5.21
			C902.32,778.79,897.77,778.81,893.59,777.94z"/>
		<path d="M1021.94,699.81l-22.7,68.82l-20.81,0.46l-25.73-67.74l17.7-0.39l18.07,51.17l15.88-51.93L1021.94,699.81z"/>
		<path d="M1071.88,718.22l-1.81,13.7l22.09,2.92l-1.69,12.73l-22.09-2.93l-1.97,14.85l24.98,3.31l-1.75,13.21l-41.47-5.49
			l8.97-67.7l41.47,5.49l-1.75,13.21L1071.88,718.22z"/>
		<path d="M1151.29,791.23l-6.51-28.71l-3.83-1.1l-7.14,24.77l-15.98-4.61l18.91-65.62l26.83,7.73c5.17,1.49,9.32,3.67,12.45,6.52
			c3.12,2.86,5.14,6.12,6.04,9.79c0.9,3.67,0.79,7.43-0.32,11.3c-1.26,4.36-3.61,7.9-7.06,10.62c-3.45,2.72-7.78,4.1-12.99,4.15
			l7.65,30.35L1151.29,791.23z M1144.21,750.11l9.91,2.86c2.93,0.84,5.33,0.76,7.21-0.25c1.88-1.01,3.19-2.83,3.95-5.44
			c0.72-2.49,0.55-4.67-0.5-6.52c-1.05-1.85-3.04-3.2-5.97-4.05l-9.91-2.86L1144.21,750.11z"/>
		<path d="M1310.03,787.41l-47.18,52.49l-17.89-9.25l10.96-44.93l-30.67,34.74l-17.89-9.25l15.98-68.62l15.82,8.18l-14.1,48.67
			l33.63-38.58l16.25,8.4l-12.46,49.52l31.65-39.6L1310.03,787.41z"/>
		<path d="M1339.66,881.03l-19.82-16.03l-10.76,6.81l-13.54-10.95l62.16-37.57l14.98,12.11l-23.73,68.64l-13.69-11.07
			L1339.66,881.03z M1344.4,868.36l9.14-24.76l-22.23,14.18L1344.4,868.36z"/>
		<path d="M1387.33,926.04l14.72,16.07l-9.47,8.67l-25.95-28.34l50.37-46.12l11.24,12.27L1387.33,926.04z"/>
		<path d="M1493.05,972.67l-10.96,7.58l-10.3-14.88l-45.2,31.28l-9.46-13.68l45.2-31.28l-10.3-14.88l10.96-7.58L1493.05,972.67z"/>
		<path d="M1518.81,1019.25l-36.84,17.68c-3.68,1.77-6.09,4.03-7.2,6.8c-1.12,2.77-0.83,5.9,0.85,9.41
			c1.68,3.51,3.97,5.72,6.86,6.64c2.89,0.92,6.17,0.49,9.86-1.28l36.84-17.68l7.2,15l-36.75,17.64c-5.5,2.64-10.71,3.7-15.63,3.19
			c-4.92-0.52-9.3-2.28-13.12-5.3c-3.83-3.02-6.9-6.96-9.23-11.81c-2.33-4.85-3.46-9.65-3.4-14.39c0.06-4.74,1.47-9.14,4.24-13.2
			c2.76-4.06,6.89-7.41,12.39-10.05l36.75-17.64L1518.81,1019.25z"/>
		<path d="M1501.79,1171.52l-4.5-16.02l33.03-38.18l-40.56,11.39l-4.5-16.02l65.75-18.47l4.5,16.02l-33.22,38.23l40.74-11.44
			l4.5,16.02L1501.79,1171.52z"/>
		<path d="M1558.06,1241.29c2.14-1.44,3.7-3.37,4.68-5.77c0.97-2.41,1.31-5.16,1.02-8.26c-0.51-5.36-2.68-9.48-6.51-12.37
			c-3.83-2.89-8.68-4.06-14.55-3.49c-6.26,0.6-10.99,2.76-14.19,6.49c-3.2,3.73-4.51,8.56-3.94,14.5c0.39,4.07,1.75,7.41,4.09,10.02
			c2.33,2.61,5.5,4.37,9.5,5.3l-2.01-21.02l12.2-1.17l3.45,36.03l-15.4,1.47c-4.25-0.83-8.29-2.55-12.12-5.15
			c-3.83-2.6-7.06-6.05-9.69-10.36c-2.63-4.31-4.21-9.31-4.76-14.99c-0.64-6.72,0.25-12.84,2.69-18.39
			c2.43-5.54,6.13-10.03,11.08-13.47c4.95-3.44,10.78-5.48,17.49-6.12c6.71-0.64,12.84,0.25,18.39,2.69
			c5.54,2.43,10.03,6.13,13.47,11.07c3.44,4.95,5.48,10.78,6.12,17.5c0.78,8.13-0.53,15.18-3.94,21.14
			c-3.41,5.96-8.51,10.18-15.31,12.65L1558.06,1241.29z"/>
	</g>
	<rect x="420.73" y="1284.93" width="1158.54" height="15.26"/>
</g>
</svg>
